<svg width="574" height="66" viewBox="0 0 574 66" fill="none" xmlns="http://www.w3.org/2000/svg">
<path d="M92.2702 65.7202C92.089 65.5369 92 65.286 92 64.9644V19.026C92 18.7076 92.089 18.4535 92.2702 18.2734C92.4514 18.09 92.6993 18 93.0172 18H110.433C114.092 18 117.334 18.64 120.157 19.9201C122.98 21.2002 125.16 23.0046 126.695 25.3364C128.231 27.6682 129 30.3667 129 33.4286V50.5714C129 53.6333 128.231 56.3318 126.695 58.6636C125.16 60.9954 122.98 62.803 120.157 64.0799C117.334 65.36 114.092 66 110.433 66H93.014C92.6993 65.9968 92.4482 65.9035 92.2702 65.7202ZM105.077 54.9552H110.904C112.439 54.9552 113.704 54.3506 114.699 53.138C115.691 51.9287 116.212 50.3399 116.257 48.3715V35.6189C116.257 33.6537 115.758 32.0649 114.766 30.8523C113.771 29.643 112.461 29.0351 110.834 29.0351H105.077C104.851 29.0351 104.737 29.1509 104.737 29.3792V54.6111C104.737 54.8427 104.851 54.9552 105.077 54.9552Z" fill="black" fill-opacity="0.7"/>
<path d="M31.4378 65.1091L29.9603 59.7604C29.8689 59.5771 29.7587 59.487 29.6232 59.487H15.3837C15.2482 59.487 15.138 59.5803 15.0466 59.7604L13.5691 65.1091C13.4336 65.7041 13.0524 66 12.4287 66H0.945682C0.139196 66 -0.150635 65.6108 0.0730389 64.8357L14.2433 18.8234C14.4228 18.2734 14.804 18 15.3837 18H29.6232C30.206 18 30.5841 18.2734 30.7636 18.8234L44.9338 64.8325C44.9779 64.9258 45 65.0608 45 65.2442C45 65.7491 44.685 65.9968 44.0612 65.9968H32.5751C31.9513 66 31.5733 65.7009 31.4378 65.1091ZM18.2725 49.6098H26.6682C26.936 49.6098 27.0273 49.4715 26.936 49.1981L22.6389 33.8403C22.5948 33.702 22.5255 33.6344 22.4373 33.6344C22.3459 33.6344 22.2798 33.702 22.2357 33.8403L18.0048 49.1981C17.9607 49.4747 18.0489 49.6098 18.2725 49.6098Z" fill="black" fill-opacity="0.7"/>
<path d="M188.879 64.1602C186.055 62.9306 183.868 61.1758 182.319 58.8957C180.77 56.6157 180 53.9803 180 50.9833V50.0461C180 49.7348 180.088 49.4863 180.268 49.3071C180.448 49.1278 180.694 49.0398 181.007 49.0398H191.432C191.744 49.0398 191.994 49.131 192.17 49.3071C192.35 49.4863 192.439 49.7316 192.439 50.0461V50.4487C192.439 51.7003 193.098 52.8073 194.423 53.7665C195.745 54.7288 197.506 55.2068 199.705 55.2068C201.365 55.2068 202.552 54.8609 203.271 54.169C203.987 53.4772 204.347 52.7067 204.347 51.8576C204.347 50.8764 203.899 50.1373 203.003 49.6436C202.107 49.153 200.469 48.5492 198.093 47.8321L196.143 47.2944C191.703 45.9546 187.98 44.1652 184.976 41.9324C181.972 39.6964 180.47 36.4572 180.47 32.2116C180.47 29.397 181.234 26.9031 182.758 24.7363C184.282 22.5695 186.38 20.9058 189.046 19.7422C191.713 18.5818 194.707 18 198.027 18C201.526 18 204.697 18.6478 207.546 19.9435C210.393 21.2392 212.636 23.0727 214.274 25.4407C215.911 27.812 216.729 30.5134 216.729 33.5545V34.1583C216.729 34.4728 216.637 34.7181 216.46 34.8942C216.281 35.0734 216.034 35.1615 215.719 35.1615H205.294C204.978 35.1615 204.732 35.0734 204.555 34.8942C204.375 34.7149 204.287 34.4696 204.287 34.1583V34.0922C204.287 32.7525 203.681 31.5355 202.469 30.4379C201.258 29.3435 199.62 28.7963 197.56 28.7963C196.124 28.7963 194.991 29.0888 194.161 29.6674C193.331 30.2492 192.918 31.0543 192.918 32.0795C192.918 32.8846 193.221 33.5671 193.827 34.1237C194.433 34.6835 195.364 35.2181 196.619 35.7339C197.875 36.2496 199.803 36.9069 202.403 37.712C202.763 37.8472 204.344 38.3284 207.146 39.1523C209.948 39.9794 212.292 41.4764 214.176 43.6432C216.06 45.8131 217 48.4359 217 51.5211C217 54.515 216.236 57.0969 214.712 59.2637C213.188 61.4337 211.055 63.0973 208.323 64.2577C205.587 65.4213 202.403 66 198.771 66C195.004 66.0031 191.706 65.3899 188.879 64.1602Z" fill="black" fill-opacity="0.7"/>
<path d="M221.276 65.7234C221.091 65.54 221 65.2892 221 64.9675V19.0261C221 18.7076 221.091 18.4535 221.276 18.2734C221.461 18.0901 221.714 18 222.038 18H232.965C233.286 18 233.543 18.0933 233.724 18.2734C233.909 18.4567 234 18.7076 234 19.0261V64.9707C234 65.2924 233.906 65.5433 233.724 65.7266C233.539 65.9099 233.286 66 232.965 66H222.038C221.714 66 221.461 65.9067 221.276 65.7234Z" fill="#FE7B4D"/>
<path d="M246.069 63.7833C243.197 62.3087 240.965 60.2303 239.38 57.5483C237.796 54.8662 237 51.7849 237 48.2979V35.6298C237 32.1428 237.792 29.0709 239.38 26.414C240.965 23.7571 243.194 21.6882 246.069 20.2135C248.941 18.7389 252.263 18 256.034 18C259.711 18 262.997 18.7043 265.895 20.1129C268.79 21.5215 271.031 23.4301 272.62 25.8449C274.208 28.2597 275 30.8945 275 33.7558V33.8218C275 34.1362 274.906 34.3815 274.725 34.5576C274.541 34.7368 274.288 34.8248 273.965 34.8248H263.14C262.451 34.8248 262.105 34.6236 262.105 34.2211C262.105 32.7465 261.565 31.4731 260.484 30.4009C259.404 29.3287 257.923 28.791 256.037 28.791C254.197 28.791 252.728 29.3822 251.626 30.5675C250.523 31.7529 249.97 33.3282 249.97 35.2933V48.7004C249.97 50.6215 250.6 52.1842 251.865 53.3916C253.13 54.599 254.701 55.2027 256.587 55.2027C258.288 55.2027 259.679 54.7436 260.759 53.8286C261.84 52.9137 262.38 51.6497 262.38 50.043V49.172C262.38 48.9488 262.263 48.8356 262.034 48.8356H255.966C255.643 48.8356 255.39 48.7475 255.209 48.5683C255.025 48.3891 254.934 48.1438 254.934 47.8326V39.7896C254.934 39.4783 255.025 39.2299 255.209 39.0507C255.394 38.8715 255.646 38.7834 255.966 38.7834H273.962C274.282 38.7834 274.537 38.8746 274.722 39.0507C274.906 39.2299 274.997 39.4752 274.997 39.7896V48.9739C274.997 52.2817 274.204 55.231 272.616 57.8218C271.031 60.4127 268.8 62.425 265.928 63.8556C263.056 65.2863 259.757 66 256.034 66C252.263 65.9937 248.941 65.258 246.069 63.7833Z" fill="black" fill-opacity="0.7"/>
<path d="M362.879 64.1602C360.055 62.9306 357.868 61.1758 356.319 58.8957C354.77 56.6157 354 53.9803 354 50.9833V50.0461C354 49.7348 354.088 49.4863 354.268 49.3071C354.448 49.1278 354.694 49.0397 355.007 49.0397H365.432C365.744 49.0397 365.994 49.131 366.17 49.3071C366.35 49.4863 366.439 49.7316 366.439 50.0461V50.4487C366.439 51.7003 367.098 52.8073 368.423 53.7665C369.745 54.7288 371.506 55.2068 373.705 55.2068C375.365 55.2068 376.552 54.8609 377.271 54.169C377.987 53.4771 378.347 52.7067 378.347 51.8575C378.347 50.8764 377.899 50.1373 377.003 49.6436C376.107 49.153 374.469 48.5492 372.093 47.8321L370.143 47.2944C365.703 45.9546 361.98 44.1652 358.976 41.9324C355.972 39.6964 354.47 36.4572 354.47 32.2116C354.47 29.397 355.234 26.9031 356.758 24.7363C358.282 22.5695 360.38 20.9059 363.046 19.7423C365.713 18.5818 368.707 18 372.027 18C375.526 18 378.697 18.6478 381.546 19.9435C384.393 21.2392 386.636 23.0727 388.274 25.4407C389.911 27.812 390.729 30.5134 390.729 33.5545V34.1583C390.729 34.4728 390.637 34.7181 390.46 34.8942C390.281 35.0734 390.034 35.1615 389.719 35.1615H379.294C378.978 35.1615 378.732 35.0734 378.555 34.8942C378.375 34.7149 378.287 34.4696 378.287 34.1583V34.0922C378.287 32.7525 377.681 31.5355 376.469 30.4379C375.258 29.3435 373.62 28.7963 371.56 28.7963C370.124 28.7963 368.991 29.0888 368.161 29.6674C367.331 30.2492 366.918 31.0543 366.918 32.0795C366.918 32.8846 367.221 33.5671 367.827 34.1237C368.433 34.6835 369.364 35.2181 370.619 35.7339C371.875 36.2496 373.803 36.9069 376.403 37.712C376.763 37.8472 378.344 38.3284 381.146 39.1523C383.948 39.9794 386.292 41.4764 388.176 43.6432C390.06 45.8131 391 48.4359 391 51.521C391 54.515 390.236 57.0969 388.712 59.2637C387.188 61.4336 385.055 63.0973 382.323 64.2577C379.587 65.4213 376.403 66 372.771 66C369.001 66.0031 365.703 65.3899 362.879 64.1602Z" fill="black" fill-opacity="0.7"/>
<path d="M431.736 18.2705C431.913 18.4539 432 18.7048 432 19.0232V28.075C432 28.3967 431.91 28.6476 431.736 28.8277C431.559 29.0111 431.317 29.1012 431.006 29.1012H419.884C419.664 29.1012 419.552 29.217 419.552 29.4454V64.9707C419.552 65.2923 419.462 65.5432 419.288 65.7266C419.111 65.9099 418.869 66 418.561 66H408.103C407.793 66 407.551 65.9099 407.377 65.7266C407.2 65.5432 407.113 65.2923 407.113 64.9707V29.4486C407.113 29.2202 407.001 29.1044 406.781 29.1044H395.991C395.68 29.1044 395.438 29.0143 395.264 28.831C395.087 28.6476 395 28.3967 395 28.0783V19.0264C395 18.708 395.087 18.4539 395.264 18.2737C395.441 18.0904 395.683 18.0003 395.991 18.0003H431.009C431.317 17.9939 431.559 18.0872 431.736 18.2705Z" fill="#FBCD55"/>
<path d="M444.59 63.901C441.848 62.5017 439.73 60.5108 438.239 57.9348C436.747 55.3588 436 52.3757 436 48.9855V19.0177C436 18.7028 436.086 18.4516 436.262 18.2735C436.438 18.0922 436.679 18.0032 436.988 18.0032H447.388C447.693 18.0032 447.937 18.0954 448.11 18.2735C448.286 18.4548 448.373 18.7028 448.373 19.0177V48.9855C448.373 50.8396 448.888 52.3184 449.92 53.4251C450.951 54.5319 452.322 55.0853 454.032 55.0853C455.7 55.0853 457.049 54.5192 458.08 53.3902C459.112 52.2612 459.627 50.7919 459.627 48.9823V19.0145C459.627 18.6997 459.714 18.4484 459.89 18.2703C460.066 18.089 460.307 18 460.612 18H471.012C471.318 18 471.562 18.0922 471.738 18.2703C471.914 18.4516 472 18.6997 472 19.0145V48.9823C472 52.3725 471.253 55.3556 469.761 57.9316C468.27 60.5076 466.161 62.4985 463.441 63.8978C460.72 65.3003 457.583 66 454.026 66C450.482 66.0032 447.332 65.3035 444.59 63.901Z" fill="black" fill-opacity="0.7"/>
<path d="M508.276 65.7234C508.091 65.54 508 65.2891 508 64.9675V19.0261C508 18.7076 508.091 18.4535 508.276 18.2734C508.461 18.0901 508.714 18 509.038 18H519.965C520.286 18 520.543 18.0933 520.724 18.2734C520.909 18.4567 521 18.7076 521 19.0261V64.9707C521 65.2924 520.906 65.5432 520.724 65.7266C520.539 65.9099 520.286 66 519.965 66H509.038C508.714 66 508.461 65.9067 508.276 65.7234Z" fill="black" fill-opacity="0.7"/>
<path d="M322 66H282C280.895 66 280 65.1046 280 64V18" fill="#21799E"/>
<path d="M282 18H322C323.105 18 324 18.8954 324 20V66" fill="#FBCD55"/>
<path d="M60 18H51C49.8954 18 49 18.8954 49 20V64C49 65.1046 49.8954 66 51 66H60C61.1046 66 62 65.1046 62 64V20C62 18.8954 61.1046 18 60 18Z" fill="#FBCD55"/>
<path d="M173 29V20C173 18.8954 172.105 18 171 18L136 18C134.895 18 134 18.8954 134 20V29C134 30.1046 134.895 31 136 31L171 31C172.105 31 173 30.1046 173 29Z" fill="#21799E"/>
<path d="M173 46V37C173 35.8954 172.105 35 171 35L136 35C134.895 35 134 35.8954 134 37V46C134 47.1046 134.895 48 136 48L171 48C172.105 48 173 47.1046 173 46Z" fill="#6FAB6A"/>
<path d="M173 62V54C173 52.8954 172.105 52 171 52L136 52C134.895 52 134 52.8954 134 54V62C134 63.1046 134.895 64 136 64L171 64C172.105 64 173 63.1046 173 62Z" fill="#FBCD55"/>
<path d="M55.5 13C59.0898 13 62 10.0899 62 6.5C62 2.91015 59.0898 0 55.5 0C51.9101 0 49 2.91015 49 6.5C49 10.0899 51.9101 13 55.5 13Z" fill="#FE7B4D"/>
<path d="M227.5 13C231.09 13 234 10.0898 234 6.5C234 2.91015 231.09 0 227.5 0C223.91 0 221 2.91015 221 6.5C221 10.0898 223.91 13 227.5 13Z" fill="#6FAB6A"/>
<path d="M550 66C563.255 66 574 55.4787 574 42.5C574 29.5213 563.255 19 550 19C536.745 19 526 29.5213 526 42.5C526 55.4787 536.745 66 550 66Z" fill="#FE7B4D"/>
<path d="M479 64C479 65.1046 479.899 66.0095 480.999 65.9106C492.764 64.8537 502 54.5537 502 42C502 29.4492 492.767 19.1463 480.999 18.0894C479.899 17.9905 479 18.8954 479 20V64Z" fill="#6FAB6A"/>
<path d="M407.276 65.7266C407.091 65.5432 407 65.2924 407 64.9707V19.0261C407 18.7076 407.091 18.4535 407.276 18.2734C407.461 18.0901 407.714 18 408.038 18H418.965C419.286 18 419.543 18.0933 419.724 18.2734C419.909 18.4567 420 18.7076 420 19.0261V64.9707C420 65.2924 419.906 65.5432 419.724 65.7266C419.539 65.9099 419.286 66 418.965 66H408.038C407.714 66 407.461 65.9099 407.276 65.7266Z" fill="#21799E"/>
</svg>
