<svg width="63" height="66" viewBox="0 0 63 66" fill="none" xmlns="http://www.w3.org/2000/svg">
<path d="M41 18H32C30.8954 18 30 18.8954 30 20V64C30 65.1046 30.8954 66 32 66H41C42.1046 66 43 65.1046 43 64V20C43 18.8954 42.1046 18 41 18Z" fill="#FBCD55"/>
<path d="M61 18H52C50.8954 18 50 18.8954 50 20V64C50 65.1046 50.8954 66 52 66H61C62.1046 66 63 65.1046 63 64V20C63 18.8954 62.1046 18 61 18Z" fill="#FE7B4D"/>
<path d="M56.5 13C60.0898 13 63 10.0899 63 6.5C63 2.91015 60.0898 0 56.5 0C52.9101 0 50 2.91015 50 6.5C50 10.0899 52.9101 13 56.5 13Z" fill="#6FAB6A"/>
<path d="M23 20C23 18.8954 22.1014 17.9905 21.0012 18.0894C9.23576 19.1463 3.00747e-06 29.4463 1.90999e-06 42C8.12759e-07 54.5508 9.23324 64.8537 21.0012 65.9106C22.1014 66.0095 23 65.1046 23 64L23 20Z" fill="#21799E"/>
</svg>
