<svg width="232" height="192" viewBox="0 0 232 192" fill="none" xmlns="http://www.w3.org/2000/svg">
<path d="M0.270189 128.72C0.0890036 128.537 0 128.286 0 127.964V82.026C0 81.7076 0.0890036 81.4535 0.270189 81.2734C0.451375 81.09 0.699313 81 1.01718 81H18.4332C22.0919 81 25.3342 81.64 28.1569 82.9201C30.9796 84.2002 33.1601 86.0046 34.6954 88.3364C36.2308 90.6682 37 93.3667 37 96.4286V113.571C37 116.633 36.2308 119.332 34.6954 121.664C33.1601 123.995 30.9796 125.803 28.1569 127.08C25.3342 128.36 22.0919 129 18.4332 129H1.014C0.699313 128.997 0.448196 128.904 0.270189 128.72ZM13.0771 117.955H18.9037C20.439 117.955 21.7041 117.351 22.6991 116.138C23.6908 114.929 24.2121 113.34 24.2566 111.371V98.6189C24.2566 96.6537 23.7576 95.0649 22.7658 93.8523C21.7709 92.643 20.4613 92.0351 18.8338 92.0351H13.0771C12.8515 92.0351 12.737 92.1509 12.737 92.3792V117.611C12.737 117.843 12.8515 117.955 13.0771 117.955Z" fill="black" fill-opacity="0.7"/>
<path d="M31.4378 65.1091L29.9603 59.7604C29.8689 59.5771 29.7587 59.487 29.6232 59.487H15.3837C15.2482 59.487 15.138 59.5803 15.0466 59.7604L13.5691 65.1091C13.4336 65.7041 13.0524 66 12.4287 66H0.945682C0.139196 66 -0.150635 65.6108 0.0730389 64.8357L14.2433 18.8234C14.4228 18.2734 14.804 18 15.3837 18H29.6232C30.206 18 30.5841 18.2734 30.7636 18.8234L44.9338 64.8325C44.9779 64.9258 45 65.0608 45 65.2442C45 65.7491 44.685 65.9968 44.0612 65.9968H32.5751C31.9513 66 31.5733 65.7009 31.4378 65.1091ZM18.2725 49.6098H26.6682C26.936 49.6098 27.0273 49.4715 26.936 49.1981L22.6389 33.8403C22.5948 33.702 22.5255 33.6344 22.4373 33.6344C22.3459 33.6344 22.2798 33.702 22.2357 33.8403L18.0048 49.1981C17.9607 49.4747 18.0489 49.6098 18.2725 49.6098Z" fill="black" fill-opacity="0.7"/>
<path d="M96.8792 127.16C94.0552 125.931 91.8685 124.176 90.3192 121.896C88.7699 119.616 88 116.98 88 113.983V113.046C88 112.735 88.0884 112.486 88.2682 112.307C88.4481 112.128 88.6942 112.04 89.0066 112.04H99.4319C99.7443 112.04 99.9936 112.131 100.17 112.307C100.35 112.486 100.439 112.732 100.439 113.046V113.449C100.439 114.7 101.098 115.807 102.423 116.766C103.745 117.729 105.506 118.207 107.705 118.207C109.365 118.207 110.552 117.861 111.271 117.169C111.987 116.477 112.347 115.707 112.347 114.858C112.347 113.876 111.899 113.137 111.003 112.644C110.107 112.153 108.469 111.549 106.093 110.832L104.143 110.294C99.7033 108.955 95.98 107.165 92.976 104.932C89.9721 102.696 88.4701 99.4572 88.4701 95.2116C88.4701 92.397 89.2338 89.9031 90.7578 87.7363C92.2818 85.5695 94.3802 83.9058 97.0465 82.7422C99.7128 81.5818 102.707 81 106.027 81C109.526 81 112.697 81.6478 115.546 82.9435C118.393 84.2392 120.636 86.0727 122.274 88.4407C123.911 90.812 124.729 93.5134 124.729 96.5545V97.1583C124.729 97.4728 124.637 97.7181 124.46 97.8942C124.281 98.0734 124.034 98.1615 123.719 98.1615H113.294C112.978 98.1615 112.732 98.0734 112.555 97.8942C112.375 97.7149 112.287 97.4696 112.287 97.1583V97.0922C112.287 95.7525 111.681 94.5355 110.469 93.4379C109.258 92.3435 107.62 91.7963 105.56 91.7963C104.124 91.7963 102.991 92.0888 102.161 92.6674C101.331 93.2492 100.918 94.0543 100.918 95.0795C100.918 95.8846 101.221 96.5671 101.827 97.1237C102.433 97.6835 103.364 98.2181 104.619 98.7339C105.875 99.2496 107.803 99.9069 110.403 100.712C110.763 100.847 112.344 101.328 115.146 102.152C117.948 102.979 120.292 104.476 122.176 106.643C124.06 108.813 125 111.436 125 114.521C125 117.515 124.236 120.097 122.712 122.264C121.188 124.434 119.055 126.097 116.323 127.258C113.587 128.421 110.403 129 106.771 129C103.004 129.003 99.7065 128.39 96.8792 127.16Z" fill="black" fill-opacity="0.7"/>
<path d="M129.276 128.723C129.091 128.54 129 128.289 129 127.968V82.0261C129 81.7076 129.091 81.4535 129.276 81.2734C129.461 81.0901 129.714 81 130.038 81H140.965C141.286 81 141.543 81.0933 141.724 81.2734C141.909 81.4567 142 81.7076 142 82.0261V127.971C142 128.292 141.906 128.543 141.724 128.727C141.539 128.91 141.286 129 140.965 129H130.038C129.714 129 129.461 128.907 129.276 128.723Z" fill="#FE7B4D"/>
<path d="M154.069 126.783C151.197 125.309 148.965 123.23 147.38 120.548C145.796 117.866 145 114.785 145 111.298V98.6298C145 95.1428 145.792 92.0709 147.38 89.414C148.965 86.7571 151.194 84.6882 154.069 83.2135C156.941 81.7389 160.263 81 164.034 81C167.711 81 170.997 81.7043 173.895 83.1129C176.79 84.5215 179.031 86.4301 180.62 88.8449C182.208 91.2597 183 93.8945 183 96.7558V96.8218C183 97.1362 182.906 97.3815 182.725 97.5576C182.541 97.7368 182.288 97.8248 181.965 97.8248H171.14C170.451 97.8248 170.105 97.6236 170.105 97.2211C170.105 95.7465 169.565 94.4731 168.484 93.4009C167.404 92.3287 165.923 91.791 164.037 91.791C162.197 91.791 160.728 92.3822 159.626 93.5675C158.523 94.7529 157.97 96.3282 157.97 98.2933V111.7C157.97 113.622 158.6 115.184 159.865 116.392C161.13 117.599 162.701 118.203 164.587 118.203C166.288 118.203 167.679 117.744 168.759 116.829C169.84 115.914 170.38 114.65 170.38 113.043V112.172C170.38 111.949 170.263 111.836 170.034 111.836H163.966C163.643 111.836 163.39 111.748 163.209 111.568C163.025 111.389 162.934 111.144 162.934 110.833V102.79C162.934 102.478 163.025 102.23 163.209 102.051C163.394 101.871 163.646 101.783 163.966 101.783H181.962C182.282 101.783 182.537 101.875 182.722 102.051C182.906 102.23 182.997 102.475 182.997 102.79V111.974C182.997 115.282 182.204 118.231 180.616 120.822C179.031 123.413 176.8 125.425 173.928 126.856C171.056 128.286 167.757 129 164.034 129C160.263 128.994 156.941 128.258 154.069 126.783Z" fill="black" fill-opacity="0.7"/>
<path d="M8.87924 190.16C6.05518 188.931 3.8685 187.176 2.31921 184.896C0.769913 182.616 0 179.98 0 176.983V176.046C0 175.735 0.0883508 175.486 0.268208 175.307C0.448064 175.128 0.694184 175.04 1.00657 175.04H11.4319C11.7443 175.04 11.9936 175.131 12.1703 175.307C12.3502 175.486 12.4385 175.732 12.4385 176.046V176.449C12.4385 177.7 13.098 178.807 14.4232 179.766C15.7454 180.729 17.5061 181.207 19.7054 181.207C21.3651 181.207 22.5515 180.861 23.2709 180.169C23.9872 179.477 24.3469 178.707 24.3469 177.858C24.3469 176.876 23.8989 176.137 23.0027 175.644C22.1066 175.153 20.469 174.549 18.093 173.832L16.1429 173.294C11.7033 171.955 7.97996 170.165 4.97604 167.932C1.97211 165.696 0.470152 162.457 0.470152 158.212C0.470152 155.397 1.23375 152.903 2.7578 150.736C4.28185 148.569 6.38018 146.906 9.04648 145.742C11.7128 144.582 14.7072 144 18.0267 144C21.526 144 24.6972 144.648 27.5465 145.944C30.3926 147.239 32.6361 149.073 34.2738 151.441C35.9114 153.812 36.7286 156.513 36.7286 159.554V160.158C36.7286 160.473 36.6371 160.718 36.4604 160.894C36.2806 161.073 36.0345 161.161 35.7189 161.161H25.2935C24.978 161.161 24.7319 161.073 24.5552 160.894C24.3753 160.715 24.287 160.47 24.287 160.158V160.092C24.287 158.753 23.6811 157.535 22.4695 156.438C21.2578 155.344 19.6202 154.796 17.5597 154.796C16.124 154.796 14.9912 155.089 14.1613 155.667C13.3315 156.249 12.9181 157.054 12.9181 158.08C12.9181 158.885 13.221 159.567 13.8269 160.124C14.4327 160.683 15.3636 161.218 16.6194 161.734C17.8752 162.25 19.8032 162.907 22.4032 163.712C22.7629 163.847 24.3438 164.328 27.1457 165.152C29.9477 165.979 32.2922 167.476 34.1759 169.643C36.0597 171.813 37 174.436 37 177.521C37 180.515 36.2364 183.097 34.7123 185.264C33.1883 187.434 31.0553 189.097 28.3227 190.258C25.587 191.421 22.4032 192 18.7714 192C15.0007 192.003 11.7033 191.39 8.87924 190.16Z" fill="black" fill-opacity="0.7"/>
<path d="M77.7361 144.271C77.9131 144.454 78 144.705 78 145.023V154.075C78 154.397 77.91 154.648 77.7361 154.828C77.5591 155.011 77.3169 155.101 77.0064 155.101H65.884C65.6636 155.101 65.5518 155.217 65.5518 155.445V190.971C65.5518 191.292 65.4617 191.543 65.2878 191.727C65.1109 191.91 64.8687 192 64.5613 192H54.1034C53.7929 192 53.5507 191.91 53.3768 191.727C53.1998 191.543 53.1129 191.292 53.1129 190.971V155.449C53.1129 155.22 53.0011 155.104 52.7806 155.104H41.9905C41.68 155.104 41.4378 155.014 41.2639 154.831C41.0869 154.648 41 154.397 41 154.078V145.026C41 144.708 41.0869 144.454 41.2639 144.274C41.4409 144.09 41.6831 144 41.9905 144H77.0095C77.3169 143.994 77.5591 144.087 77.7361 144.271Z" fill="#FBCD55"/>
<path d="M90.5901 189.901C87.8482 188.502 85.73 186.511 84.2386 183.935C82.7472 181.359 82 178.376 82 174.985V145.018C82 144.703 82.0865 144.452 82.2625 144.273C82.4385 144.092 82.6793 144.003 82.9881 144.003H93.3876C93.6933 144.003 93.9372 144.095 94.1101 144.273C94.2861 144.455 94.3726 144.703 94.3726 145.018V174.985C94.3726 176.84 94.8882 178.318 95.9195 179.425C96.9509 180.532 98.3218 181.085 100.032 181.085C101.7 181.085 103.049 180.519 104.08 179.39C105.112 178.261 105.627 176.792 105.627 174.982V145.015C105.627 144.7 105.714 144.448 105.89 144.27C106.066 144.089 106.307 144 106.612 144H117.012C117.318 144 117.562 144.092 117.738 144.27C117.914 144.452 118 144.7 118 145.015V174.982C118 178.372 117.253 181.356 115.761 183.932C114.27 186.508 112.161 188.498 109.441 189.898C106.72 191.3 103.583 192 100.026 192C96.4815 192.003 93.332 191.303 90.5901 189.901Z" fill="black" fill-opacity="0.7"/>
<path d="M154.276 191.723C154.091 191.54 154 191.289 154 190.967V145.026C154 144.708 154.091 144.454 154.276 144.273C154.461 144.09 154.714 144 155.038 144H165.965C166.286 144 166.543 144.093 166.724 144.273C166.909 144.457 167 144.708 167 145.026V190.971C167 191.292 166.906 191.543 166.724 191.727C166.539 191.91 166.286 192 165.965 192H155.038C154.714 192 154.461 191.907 154.276 191.723Z" fill="black" fill-opacity="0.7"/>
<path d="M230 129H190C188.895 129 188 128.105 188 127V81" fill="#21799E"/>
<path d="M190 81H230C231.105 81 232 81.8954 232 83V129" fill="#FBCD55"/>
<path d="M60 18H51C49.8954 18 49 18.8954 49 20V64C49 65.1046 49.8954 66 51 66H60C61.1046 66 62 65.1046 62 64V20C62 18.8954 61.1046 18 60 18Z" fill="#FBCD55"/>
<path d="M81 92V83C81 81.8954 80.1046 81 79 81H44C42.8954 81 42 81.8954 42 83V92C42 93.1046 42.8954 94 44 94H79C80.1046 94 81 93.1046 81 92Z" fill="#21799E"/>
<path d="M81 109V100C81 98.8954 80.1046 98 79 98H44C42.8954 98 42 98.8954 42 100V109C42 110.105 42.8954 111 44 111H79C80.1046 111 81 110.105 81 109Z" fill="#6FAB6A"/>
<path d="M81 125V117C81 115.895 80.1046 115 79 115H44C42.8954 115 42 115.895 42 117V125C42 126.105 42.8954 127 44 127H79C80.1046 127 81 126.105 81 125Z" fill="#FBCD55"/>
<path d="M55.5 13C59.0898 13 62 10.0899 62 6.5C62 2.91015 59.0898 0 55.5 0C51.9101 0 49 2.91015 49 6.5C49 10.0899 51.9101 13 55.5 13Z" fill="#FE7B4D"/>
<path d="M135.5 76C139.09 76 142 73.0898 142 69.5C142 65.9101 139.09 63 135.5 63C131.91 63 129 65.9101 129 69.5C129 73.0898 131.91 76 135.5 76Z" fill="#6FAB6A"/>
<path d="M196 192C209.255 192 220 181.479 220 168.5C220 155.521 209.255 145 196 145C182.745 145 172 155.521 172 168.5C172 181.479 182.745 192 196 192Z" fill="#FE7B4D"/>
<path d="M125 190C125 191.105 125.899 192.009 126.999 191.911C138.764 190.854 148 180.554 148 168C148 155.449 138.767 145.146 126.999 144.089C125.899 143.991 125 144.895 125 146V190Z" fill="#6FAB6A"/>
<path d="M53.2758 191.727C53.0908 191.543 53 191.292 53 190.971V145.026C53 144.708 53.0908 144.454 53.2758 144.273C53.4607 144.09 53.7138 144 54.0382 144H64.9651C65.2862 144 65.5426 144.093 65.7242 144.273C65.9092 144.457 66 144.708 66 145.026V190.971C66 191.292 65.9059 191.543 65.7242 191.727C65.5393 191.91 65.2862 192 64.9651 192H54.0382C53.7138 192 53.4607 191.91 53.2758 191.727Z" fill="#21799E"/>
</svg>
