<svg fill="#21799e" xmlns="http://www.w3.org/2000/svg" viewBox="0 0 24 24">
    <path
        d="M 14.9375 2.40625 C 14.6815 2.4065 14.41375 2.52375 14.21875 2.71875 L 9.6875 7.25 L 11.09375 8.65625 L 13.5 6.25 C 14.748 6.747 13.3805 8.066 13.6875 8.5 C 13.9525 8.876 14.664 8.828 15.625 8.375 C 16.077 8.162 16.3965 8.1245 16.5625 8.1875 C 17.7445 8.6405 14.575 10.4695 15.625 11.1875 C 15.793 11.3025 16.41075 11.30325 17.09375 11.15625 L 15.34375 12.90625 L 16.75 14.3125 L 21.28125 9.78125 C 21.67225 9.39025 21.67225 8.765 21.28125 8.375 L 15.625 2.71875 C 15.43 2.52475 15.1935 2.406 14.9375 2.40625 z M 8.46875 8.46875 L 6.625 10.3125 C 5.844 11.0935 5.844 12.344 6.625 13.125 L 7.375 13.90625 C 7.755 14.28625 7.77025 14.88625 7.40625 15.28125 C 7.13125 15.58025 6.833 15.88175 6.625 15.96875 C 5.842 16.29775 4.3515 16.836 3.4375 17.75 C 2.0705 19.117 1.594 20.844 2.375 21.625 C 3.156 22.406 4.883 21.9295 6.25 20.5625 C 7.164 19.6485 7.70225 18.159 8.03125 17.375 C 8.11825 17.167 8.42075 16.86975 8.71875 16.59375 C 9.11475 16.23075 9.71375 16.245 10.09375 16.625 L 10.875 17.375 C 11.656 18.156 12.9065 18.156 13.6875 17.375 L 15.53125 15.53125 L 8.46875 8.46875 z M 4.5 18.5 C 4.755875 18.5 5.02375 18.58575 5.21875 18.78125 C 5.60975 19.17125 5.60975 19.82775 5.21875 20.21875 C 4.82875 20.60875 4.17125 20.60975 3.78125 20.21875 C 3.39025 19.82775 3.39125 19.17125 3.78125 18.78125 C 3.97675 18.58575 4.244125 18.5 4.5 18.5 z" />
</svg>