<svg xmlns="http://www.w3.org/2000/svg" version="1.1" xmlns:xlink="http://www.w3.org/1999/xlink"
    preserveAspectRatio="none" x="0px" y="0px" width="43px" height="59px" viewBox="0 0 43 59">
    <defs>
        <g id="FILES_2_Layer0_0_FILL">
            <path fill="#003399" stroke="none"
                d="
M 18.75 23.1
L 18.75 8.65 -6.8 8.65
Q -8.65 8.75 -10.05 10.3 -11.5 11.9 -11.5 14.1
L -11.5 17.65
Q -11.5 19.85 -10.05 21.45 -8.65 23 -6.8 23.1 -6.7 23.1 -6.6 23.1
L 18.75 23.1
M 19.1 8.65
L 18.75 8.65 18.75 23.1 19.1 23.1 19.1 8.65 Z" />

            <path fill="#F8F8F8" stroke="none"
                d="
M 12.1 -19.95
L 18.75 -19.95 12.1 -26.5 12.1 -19.95
M -18 -26.5
Q -19.1 -26.5 -19.1 -25.4
L -19.1 22.2
Q -19.1 26.5 -14.85 26.5
L 16.6 26.5
Q 18.75 26.5 18.75 24.35
L 18.75 23.1 -6.6 23.1
Q -6.7 23.1 -6.8 23.1 -8.75 23.1 -10.25 21.45 -11.7 19.85 -11.7 17.65
L -11.7 14.1
Q -11.7 11.9 -10.25 10.3 -8.75 8.65 -6.8 8.65
L 18.75 8.65 18.75 -19.95 12.1 -19.95 12.1 -26.5 -18 -26.5
M -12.25 -12.95
L -1.4 -12.95 -12.25 -12.95
M -12.25 -7.4
L -6.9 -7.4 -12.25 -7.4
M -12.25 -1.85
L -1.4 -1.85 -12.25 -1.85
M 1.1 -1.85
L 5.1 -1.85 1.1 -1.85
M 7.65 -1.85
L 11.9 -1.85 7.65 -1.85
M 7.65 -7.4
L 11.9 -7.4 7.65 -7.4
M 1.1 -12.95
L 11.9 -12.95 1.1 -12.95
M -12.25 -18.5
L 6.25 -18.5 -12.25 -18.5
M -4.4 -7.4
L 5.1 -7.4 -4.4 -7.4
M -6.9 3.7
L -1.15 3.7 -6.9 3.7
M -12.25 3.7
L -9.45 3.7 -12.25 3.7 Z" />
        </g>

        <g id="FILES_2_Layer0_0_MEMBER_0_FILL">
            <path fill="#FFFFFF" stroke="none"
                d="
M 13 15.95
L 14.65 13.15 13.25 13.15 12.35 14.8
Q 12.25 15.15 12.2 15.3 12.1 15.05 12 14.85
L 11.2 13.15 9.7 13.15 11.3 15.95 9.5 18.75 11.05 18.75 12 16.95
Q 12.1 16.7 12.15 16.55 12.2 16.8 12.25 16.95
L 13.2 18.75 14.7 18.75 13 15.95
M 9.15 13.25
Q 8.6 13.05 7.75 13.05 6.45 13.05 5.6 13.9 4.8 14.75 4.8 16.05 4.8 17.35 5.55 18.1 6.25 18.85 7.55 18.85 8.55 18.85 9.15 18.55
L 9.15 17.4
Q 8.55 17.75 7.8 17.75 7.05 17.75 6.55 17.3 6.1 16.8 6.1 16 6.1 15.15 6.6 14.65 7.1 14.15 7.9 14.15 8.6 14.15 9.15 14.5
L 9.15 13.25
M 3.45 18.05
Q 4.25 17.25 4.25 15.9 4.25 14.65 3.5 13.85 2.75 13.05 1.55 13.05 0.3 13.05 -0.5 13.9 -1.25 14.7 -1.25 16 -1.25 17.3 -0.5 18.05 0.25 18.85 1.45 18.85 2.7 18.85 3.45 18.05
M 0.45 14.65
Q 0.85 14.15 1.5 14.15 2.15 14.15 2.55 14.65 2.9 15.1 2.9 16 2.9 16.8 2.5 17.3 2.15 17.75 1.5 17.75 0.85 17.75 0.45 17.25 0.05 16.8 0.05 15.95 0.05 15.15 0.45 14.65
M -1.85 15.9
Q -1.85 13.15 -4.8 13.15
L -6.8 13.15 -6.8 18.75 -4.8 18.75
Q -3.45 18.75 -2.65 17.95 -1.85 17.2 -1.85 15.9
M -4.95 14.2
Q -4.1 14.2 -3.65 14.65 -3.15 15.1 -3.15 15.9 -3.15 16.75 -3.65 17.25 -4.1 17.75 -4.9 17.75
L -5.55 17.75 -5.55 14.2 -4.95 14.2 Z" />
        </g>

        <path id="FILES_2_Layer0_0_1_STROKES" stroke="#002368" stroke-width="1.3"
            stroke-linejoin="round" stroke-linecap="round" fill="none"
            d="
M -12.25 -12.95
L -1.4 -12.95
M -12.25 -7.4
L -6.9 -7.4
M -12.25 -1.85
L -1.4 -1.85
M 1.1 -12.95
L 11.9 -12.95
M 7.65 -7.4
L 11.9 -7.4
M 7.65 -1.85
L 11.9 -1.85
M 1.1 -1.85
L 5.1 -1.85
M 18.75 -19.95
L 12.1 -19.95 12.1 -26.5
M -12.25 -18.5
L 6.25 -18.5
M -4.4 -7.4
L 5.1 -7.4
M -6.9 3.7
L -1.15 3.7
M -12.25 3.7
L -9.45 3.7" />

        <path id="FILES_2_Layer0_0_2_STROKES" stroke="#002368" stroke-width="1.5"
            stroke-linejoin="round" stroke-linecap="round" fill="none"
            d="
M 18.75 23.1
L 18.75 24.35
Q 18.75 26.5 16.6 26.5
L -14.85 26.5
Q -19.1 26.5 -19.1 22.2
L -19.1 -25.4
Q -19.1 -26.5 -18 -26.5
L 12.1 -26.5 18.75 -19.95 18.75 8.65 18.75 23.1 Z" />
    </defs>

    <g transform="matrix( 1, 0, 0, 1, 21.5,29.9) ">
        <g transform="matrix( 1, 0, 0, 1, 0,0) ">
            <use xlink:href="#FILES_2_Layer0_0_FILL" />

            <use xlink:href="#FILES_2_Layer0_0_1_STROKES" />

            <use xlink:href="#FILES_2_Layer0_0_2_STROKES" />
        </g>

        <g transform="matrix( 1, 0, 0, 1, 0,0) ">
            <use xlink:href="#FILES_2_Layer0_0_MEMBER_0_FILL" />
        </g>
    </g>
</svg>