<?xml version="1.0" encoding="iso-8859-1"?>
<!-- Uploaded to: SVG Repo, www.svgrepo.com, Generator: SVG Repo Mixer Tools -->
<svg fill="#a34ba1" height="800px" width="800px" version="1.1" id="Layer_1"
	xmlns="http://www.w3.org/2000/svg" xmlns:xlink="http://www.w3.org/1999/xlink"
	viewBox="0 0 508.8 508.8" xml:space="preserve">
<g>
	<g>
		<path d="M508.324,61.2c0-16.4-6.4-31.6-18-43.2c-11.6-11.6-26.8-18-43.2-18c-16.4,0-31.6,6.4-43.2,18l-96.8,97.6
			c-4.8-2.8-10-4-15.6-4c-8.4,0-16.8,3.2-22.8,9.2l-4,4c-12,12-12.4,30.8-1.6,43.6l-242,242c-13.2,13.2-16,33.6-6.8,49.6l-10.4,14
			c-5.2,6.8-4.4,17.6,1.6,24l5.6,5.6c3.2,3.2,8,5.2,13.2,5.2c4,0,8-1.2,10.8-3.6l14-10.8c6,3.2,12.8,5.2,20,5.2
			c11.2,0,21.6-4.4,29.2-12l241.6-241.6c6,5.2,13.2,8,21.2,8c8.4,0,16.8-3.2,22.8-9.2l4-4c10.4-10.4,12.4-26,5.2-38.4l97.2-98
			C501.924,92.8,508.324,77.6,508.324,61.2z M87.124,476c-4.8,4.8-11.2,7.6-18,7.6c-4.4,0-8.8-1.2-12.4-3.2c-2.4-1.2-5.2-2-7.6-2
			c-3.6,0-6.8,1.2-9.6,3.2l-14,10.8c0,0-0.8,0.4-1.2,0.4c-0.8,0-1.6-0.4-1.6-0.4l-6-6c-0.8-0.8-0.8-2.4-0.4-3.2l10.4-14
			c4-5.2,4.4-12,1.2-17.6c-5.6-10-4-22.4,4-30.4l242.4-241.6l54.4,54.8L87.124,476z"/>
	</g>
</g>
</svg>