
<svg xmlns="http://www.w3.org/2000/svg" version="1.1" xmlns:xlink="http://www.w3.org/1999/xlink" preserveAspectRatio="none" x="0px" y="0px" width="43px" height="59px" viewBox="0 0 43 59">
<defs>
<g id="FILES_0_Layer0_0_FILL">
<path fill="#333366" stroke="none" d="
M 18.85 23.1
L 18.85 8.65 -6.7 8.65
Q -8.65 8.65 -10.15 10.3 -11.6 11.9 -11.6 14.1
L -11.6 17.65
Q -11.6 19.85 -10.15 21.45 -8.65 23.1 -6.7 23.1
L 18.85 23.1
M 6.3 12.9
L 8.55 12.9
Q 11.95 12.9 11.95 16 11.95 17.5 11.05 18.35 10.15 19.25 8.55 19.25
L 6.3 19.25 6.3 12.9
M 3.5 14.05
Q 3.35 14.65 3.3 14.9
L 1.8 19.25 0.65 19.25 -0.9 14.95
Q -1 14.8 -1.1 14.05
L -1.15 14.05
Q -1.1 15 -1.1 15.75
L -1.1 19.25 -2.4 19.25 -2.4 12.9 -0.3 12.9 1.05 16.7
Q 1.2 17.15 1.25 17.6
L 1.3 17.6
Q 1.4 17.05 1.55 16.65
L 2.85 12.9 4.9 12.9 4.9 19.25 3.45 19.25 3.45 15.4
Q 3.45 14.8 3.5 14.05
M 7.75 14.05
L 7.75 18.1 8.45 18.1
Q 9.4 18.1 9.95 17.55 10.45 17 10.45 16.05 10.45 15.1 9.95 14.55 9.45 14.05 8.45 14.05
L 7.75 14.05
M 19 8.65
L 18.85 8.65 18.85 23.1 19 23.1 19 8.65 Z"/>

<path fill="#FFFFFF" stroke="none" d="
M 3.3 14.9
Q 3.35 14.65 3.5 14.05 3.45 14.8 3.45 15.4
L 3.45 19.25 4.9 19.25 4.9 12.9 2.85 12.9 1.55 16.65
Q 1.4 17.05 1.3 17.6
L 1.25 17.6
Q 1.2 17.15 1.05 16.7
L -0.3 12.9 -2.4 12.9 -2.4 19.25 -1.1 19.25 -1.1 15.75
Q -1.1 15 -1.15 14.05
L -1.1 14.05
Q -1 14.8 -0.9 14.95
L 0.65 19.25 1.8 19.25 3.3 14.9
M 8.55 12.9
L 6.3 12.9 6.3 19.25 8.55 19.25
Q 10.15 19.25 11.05 18.35 11.95 17.5 11.95 16 11.95 12.9 8.55 12.9
M 7.75 18.1
L 7.75 14.05 8.45 14.05
Q 9.45 14.05 9.95 14.55 10.45 15.1 10.45 16.05 10.45 17 9.95 17.55 9.4 18.1 8.45 18.1
L 7.75 18.1 Z"/>

<path fill="#F8F8F8" stroke="none" d="
M 18.85 -19.95
L 12.2 -19.95 12.2 -26.5 -17.9 -26.5
Q -19 -26.5 -19 -25.4
L -19 22.2
Q -19 26.5 -14.75 26.5
L 16.7 26.5
Q 18.85 26.5 18.85 24.35
L 18.85 23.1 -6.7 23.1
Q -8.65 23.1 -10.15 21.45 -11.6 19.85 -11.6 17.65
L -11.6 14.1
Q -11.6 11.9 -10.15 10.3 -8.65 8.65 -6.7 8.65
L 18.85 8.65 18.85 -19.95
M 7.75 -1.85
L 12 -1.85 7.75 -1.85
M 1.2 -1.85
L 5.2 -1.85 1.2 -1.85
M 7.75 -7.4
L 12 -7.4 7.75 -7.4
M 1.2 -12.95
L 12 -12.95 1.2 -12.95
M -12.15 -7.4
L -6.8 -7.4 -12.15 -7.4
M -12.15 -1.85
L -1.3 -1.85 -12.15 -1.85
M -12.15 -12.95
L -1.3 -12.95 -12.15 -12.95
M -6.8 3.7
L -1.05 3.7 -6.8 3.7
M -12.15 3.7
L -9.35 3.7 -12.15 3.7
M -4.3 -7.4
L 5.2 -7.4 -4.3 -7.4
M -12.15 -18.5
L 6.35 -18.5 -12.15 -18.5
M 12.2 -19.95
L 18.85 -19.95 12.2 -26.5 12.2 -19.95 Z"/>
</g>

<path id="FILES_0_Layer0_0_1_STROKES" stroke="#2E2E59" stroke-width="1.3" stroke-linejoin="round" stroke-linecap="round" fill="none" d="
M 18.85 -19.95
L 12.2 -19.95 12.2 -26.5
M 7.75 -1.85
L 12 -1.85
M 1.2 -1.85
L 5.2 -1.85
M 7.75 -7.4
L 12 -7.4
M 1.2 -12.95
L 12 -12.95
M -12.15 -7.4
L -6.8 -7.4
M -12.15 -1.85
L -1.3 -1.85
M -12.15 -12.95
L -1.3 -12.95
M -6.8 3.7
L -1.05 3.7
M -12.15 3.7
L -9.35 3.7
M -4.3 -7.4
L 5.2 -7.4
M -12.15 -18.5
L 6.35 -18.5"/>

<path id="FILES_0_Layer0_0_2_STROKES" stroke="#2E2E59" stroke-width="1.5" stroke-linejoin="round" stroke-linecap="round" fill="none" d="
M 12.2 -26.5
L -17.9 -26.5
Q -19 -26.5 -19 -25.4
L -19 22.2
Q -19 26.5 -14.75 26.5
L 16.7 26.5
Q 18.85 26.5 18.85 24.35
L 18.85 23.1
M 18.85 8.65
L 18.85 -19.95 12.2 -26.5
M 18.85 8.65
L 18.85 23.1"/>
</defs>

<g transform="matrix( 1, 0, 0, 1, 21.5,29.9) ">
<g transform="matrix( 1, 0, 0, 1, 0,0) ">
<use xlink:href="#FILES_0_Layer0_0_FILL"/>

<use xlink:href="#FILES_0_Layer0_0_1_STROKES"/>

<use xlink:href="#FILES_0_Layer0_0_2_STROKES"/>
</g>
</g>
</svg>
