<?xml version="1.0" encoding="utf-8"?><!-- Uploaded to: SVG Repo, www.svgrepo.com, Generator: SVG Repo
Mixer Tools -->
<svg width="800px" height="800px" viewBox="0 0 64 64" xmlns="http://www.w3.org/2000/svg"
    stroke-width="3" stroke="#a34ba1" fill="none">
    <rect x="12.26" y="7.24" width="37.8" height="13.05" rx="1" stroke-linecap="round" />
    <path
        d="M31.16,38.27V34a.46.46,0,0,1,.3-.43l24.16-9a.44.44,0,0,0,.3-.42V14.22a.45.45,0,0,0-.45-.45h-5.4"
        stroke-linecap="round" />
    <rect x="27.24" y="38.27" width="8.24" height="18.48" rx="1" stroke-linecap="round" />
    <path
        d="M9.08,10.59h3.18a0,0,0,0,1,0,0v6a0,0,0,0,1,0,0H9.08a1,1,0,0,1-1-1v-4A1,1,0,0,1,9.08,10.59Z"
        stroke-linecap="round" />
</svg>