<svg xmlns="http://www.w3.org/2000/svg" version="1.1" xmlns:xlink="http://www.w3.org/1999/xlink"
    preserveAspectRatio="none" x="0px" y="0px" width="43px" height="59px" viewBox="0 0 43 59">
    <defs>
        <g id="FILES_1_Layer0_0_FILL">
            <path fill="#aa0022" stroke="none"
                d="
M 18.75 23.1
L 18.75 8.65 -6.6 8.65
Q -6.7 8.65 -6.8 8.65 -8.65 8.75 -10.05 10.3 -11.5 11.9 -11.5 14.1
L -11.5 17.65
Q -11.5 19.85 -10.05 21.45 -8.65 23 -6.8 23.1
L 18.75 23.1
M 19.1 8.65
L 18.75 8.65 18.75 23.1 19.1 23.1 19.1 8.65 Z" />

            <path fill="#F8F8F8" stroke="none"
                d="
M 12.1 -19.95
L 18.75 -19.95 12.1 -26.5 12.1 -19.95
M -18 -26.5
Q -19.1 -26.5 -19.1 -25.4
L -19.1 22.2
Q -19.1 26.5 -14.85 26.5
L 16.6 26.5
Q 18.75 26.5 18.75 24.35
L 18.75 23.1 -6.8 23.1
Q -8.75 23.1 -10.25 21.45 -11.7 19.85 -11.7 17.65
L -11.7 14.1
Q -11.7 11.9 -10.25 10.3 -8.75 8.65 -6.8 8.65 -6.7 8.65 -6.6 8.65
L 18.75 8.65 18.75 -19.95 12.1 -19.95 12.1 -26.5 -18 -26.5
M -12.25 -1.85
L -1.4 -1.85 -12.25 -1.85
M -12.25 -12.95
L -1.4 -12.95 -12.25 -12.95
M -12.25 -7.4
L -6.9 -7.4 -12.25 -7.4
M 1.1 -1.85
L 5.1 -1.85 1.1 -1.85
M 7.65 -1.85
L 11.9 -1.85 7.65 -1.85
M 7.65 -7.4
L 11.9 -7.4 7.65 -7.4
M 1.1 -12.95
L 11.9 -12.95 1.1 -12.95
M -4.4 -7.4
L 5.1 -7.4 -4.4 -7.4
M -12.25 -18.5
L 6.25 -18.5 -12.25 -18.5
M -6.9 3.7
L -1.15 3.7 -6.9 3.7
M -12.25 3.7
L -9.45 3.7 -12.25 3.7 Z" />
        </g>

        <g id="FILES_1_Layer0_0_MEMBER_0_FILL">
            <path fill="#F8F8F8" stroke="none"
                d="
M -43.45 46.15
L -45.4 46.15 -45.4 51.55 -43.45 51.55
Q -42.15 51.55 -41.4 50.8 -40.6 50.05 -40.6 48.8 -40.6 46.15 -43.45 46.15
M -42.3 47.6
Q -41.9 48.05 -41.9 48.8 -41.9 49.6 -42.3 50.1 -42.8 50.55 -43.55 50.55
L -44.15 50.55 -44.15 47.15 -43.55 47.15
Q -42.75 47.15 -42.3 47.6
M -48.2 46.15
L -50.1 46.15 -50.1 51.55 -48.85 51.55 -48.85 49.7 -48.3 49.7
Q -47.3 49.7 -46.7 49.2 -46.15 48.7 -46.15 47.85 -46.15 46.15 -48.2 46.15
M -48.85 48.75
L -48.85 47.1 -48.4 47.1
Q -47.4 47.1 -47.4 47.9 -47.4 48.75 -48.4 48.75
L -48.85 48.75
M -38.45 47.15
L -36.55 47.15 -36.55 46.15 -39.7 46.15 -39.7 51.55 -38.45 51.55 -38.45 49.45 -36.7 49.45 -36.7 48.45 -38.45 48.45 -38.45 47.15 Z" />
        </g>

        <path id="FILES_1_Layer0_0_1_STROKES" stroke="#770011" stroke-width="1.5"
            stroke-linejoin="round" stroke-linecap="round" fill="none"
            d="
M 18.75 23.1
L 18.75 24.35
Q 18.75 26.5 16.6 26.5
L -14.85 26.5
Q -19.1 26.5 -19.1 22.2
L -19.1 -25.4
Q -19.1 -26.5 -18 -26.5
L 12.1 -26.5 18.75 -19.95 18.75 8.65 18.75 23.1 Z" />

        <path id="FILES_1_Layer0_0_2_STROKES" stroke="#770011" stroke-width="1.3"
            stroke-linejoin="round" stroke-linecap="round" fill="none"
            d="
M -12.25 -1.85
L -1.4 -1.85
M -12.25 -12.95
L -1.4 -12.95
M -12.25 -7.4
L -6.9 -7.4
M 18.75 -19.95
L 12.1 -19.95 12.1 -26.5
M 1.1 -1.85
L 5.1 -1.85
M 7.65 -1.85
L 11.9 -1.85
M 7.65 -7.4
L 11.9 -7.4
M 1.1 -12.95
L 11.9 -12.95
M -4.4 -7.4
L 5.1 -7.4
M -12.25 -18.5
L 6.25 -18.5
M -6.9 3.7
L -1.15 3.7
M -12.25 3.7
L -9.45 3.7" />
    </defs>

    <g transform="matrix( 1, 0, 0, 1, 21.5,29.9) ">
        <g transform="matrix( 1, 0, 0, 1, 0,0) ">
            <use xlink:href="#FILES_1_Layer0_0_FILL" />

            <use xlink:href="#FILES_1_Layer0_0_1_STROKES" />

            <use xlink:href="#FILES_1_Layer0_0_2_STROKES" />
        </g>

        <g transform="matrix( 1.26470947265625, 0, 0, 1.26470947265625, 58.95,-46.05) ">
            <use xlink:href="#FILES_1_Layer0_0_MEMBER_0_FILL" />
        </g>
    </g>
</svg>