<svg xmlns="http://www.w3.org/2000/svg" version="1.1" xmlns:xlink="http://www.w3.org/1999/xlink"
    preserveAspectRatio="none" x="0px" y="0px" width="125px" height="109px" viewBox="0 0 125 109">
    <defs>
        <g id="Layer0_0_FILL">
            <path fill="#9386ad" stroke="#9386ad"
                stroke-width="1"
                d="
M 119.95 22
Q 119.95 18.4 116.25 18.4
L 97 18.4 97 12.75
Q 97 5.75 90.25 5.8
L 33.95 5.8
Q 27.15 5.8 27.15 12.75
L 27.15 34.55 12.95 34.55
Q 5.65 34.55 5.65 41.8
L 5.65 78.45
Q 5.65 85.7 12.95 85.7
L 27.15 85.7 27.15 96.5
Q 27.15 103.5 33.95 103.45
L 51.25 103.45
Q 52 103.45 52.55 102.95 53.05 102.4 53.05 101.65 53.05 100.85 52.55 100.35 52 99.85 51.25 99.85
L 33.95 99.85
Q 30.75 99.8 30.75 96.5
L 30.75 85.7 45.95 85.7
Q 53.25 85.7 53.25 78.45
L 53.25 41.8
Q 53.25 34.55 45.95 34.55
L 30.75 34.55 30.75 12.75
Q 30.75 9.45 33.95 9.45
L 90.25 9.45
Q 93.4 9.5 93.4 12.75
L 93.4 18.4 62.9 18.4
Q 59.2 18.4 59.2 22
L 59.2 61.4
Q 59.2 65 62.9 65
L 93.4 65 93.4 75.05 76.2 75.05
Q 73.15 75.05 71.05 77.2 68.9 79.3 68.9 82.35
L 68.9 87.15
Q 68.9 90.2 71.05 92.3 73.15 94.4 76.2 94.4
L 93.4 94.4 93.4 96.5
Q 93.4 99.8 90.25 99.85
L 72.65 99.85
Q 71.85 99.85 71.35 100.35 70.8 100.85 70.8 101.65 70.8 102.4 71.35 102.95 71.85 103.45 72.65 103.45
L 90.25 103.45
Q 97 103.5 97 96.5
L 97 94.4 103.35 94.4
Q 106.4 94.4 108.55 92.3 110.6 90.2 110.6 87.15
L 110.6 82.35
Q 110.6 79.3 108.55 77.2 106.4 75.05 103.35 75.05
L 97 75.05 97 65 116.25 65
Q 119.95 65 119.95 61.4
L 119.95 22
M 116.3 61.4
L 105.95 61.4 81.55 38.5
Q 76.4 33.45 70.95 34.95 66.95 35.85 62.85 40.55
L 62.85 22 116.3 22 116.3 61.4
M 105.95 79.8
Q 107 80.85 107 82.35
L 107 87.15
Q 107 88.65 105.95 89.7 104.85 90.75 103.35 90.75
L 76.2 90.75
Q 74.7 90.75 73.65 89.7 72.55 88.65 72.55 87.15
L 72.55 82.35
Q 72.55 80.85 73.65 79.8 74.7 78.7 76.2 78.7
L 103.35 78.7
Q 104.85 78.7 105.95 79.8
M 71.85 38.5
Q 75.5 37.65 79 41.15
L 100.6 61.4 62.85 61.4 62.85 46.05
Q 63.25 45.85 63.55 45.5 67.85 39.6 71.85 38.5
M 45.95 38.15
Q 49.6 38.15 49.6 41.8
L 49.6 78.45
Q 49.6 82.1 45.95 82.1
L 12.95 82.1
Q 9.3 82.1 9.3 78.45
L 9.3 41.8
Q 9.3 38.15 12.95 38.15
L 45.95 38.15
M 21.75 45.65
Q 21 45.65 20.5 46.2 19.95 46.7 19.95 47.45 19.95 48.25 20.5 48.75 21 49.25 21.75 49.25
L 27.15 49.25 27.15 72.65
Q 27.15 73.45 27.65 74 28.15 74.5 28.95 74.5 29.7 74.5 30.25 74 30.75 73.45 30.75 72.65
L 30.75 49.25 36.4 49.25
Q 37.2 49.25 37.75 48.75 38.25 48.25 38.25 47.45 38.25 46.7 37.75 46.2 37.2 45.65 36.4 45.65
L 21.75 45.65
M 93.7 31.85
Q 92.25 34.05 92.25 36.75 92.25 39.5 93.7 41.7 94.25 42.55 94.95 43.3 97.65 46 101.5 46 105.3 46 108.05 43.3 110.7 40.6 110.7 36.75 110.7 32.95 108.05 30.25 105.3 27.5 101.5 27.5 97.65 27.5 94.95 30.25 94.25 31 93.7 31.8
L 93.7 31.85
M 95.9 36.75
Q 95.9 35.1 96.75 33.8 97.05 33.25 97.55 32.85 99.2 31.15 101.5 31.15 103.75 31.15 105.45 32.85 107.05 34.5 107.05 36.75 107.05 39.05 105.45 40.7 103.75 42.35 101.5 42.35 99.2 42.35 97.55 40.7 97.05 40.25 96.75 39.7
L 96.75 39.75
Q 95.9 38.4 95.9 36.75 Z" />
        </g>

        <path id="Layer0_0_1_STROKES" stroke="#9386ad" stroke-width="8" stroke-linejoin="round"
            stroke-linecap="round" fill="none" d="
M 61.5 101.8
L 62.05 101.8" />
    </defs>

    <g transform="matrix( 1, 0, 0, 1, 0,0) ">
        <use xlink:href="#Layer0_0_FILL" />

        <use xlink:href="#Layer0_0_1_STROKES" />
    </g>
</svg>