<svg xmlns="http://www.w3.org/2000/svg" version="1.1" xmlns:xlink="http://www.w3.org/1999/xlink"
    preserveAspectRatio="none" x="0px" y="0px" width="437px" height="437px" viewBox="0 0 437 437">
    <defs>
        <g id="Layer0_0_FILL">
            <path fill="#fff" stroke="none"
                d="
M 7610.25 -1122
Q 7610.25 -1124.9 7610.05 -1127.65 7608.2 -1152.1 7590.6 -1169.95 7571.95 -1188.6 7545.75 -1188.85 7519.55 -1188.6 7500.95 -1169.95 7487.1 -1155.95 7483 -1137.9 7481.6 -1131.4 7481.35 -1124.4 7481.25 -1123.3 7481.25 -1122 7481.25 -1117.75 7481.75 -1113.6 7484.3 -1091 7500.95 -1074.2 7519.55 -1055.45 7545.75 -1055.25 7571.95 -1055.45 7590.6 -1074.2 7607.3 -1091 7609.8 -1113.6 7610 -1115.4 7610.15 -1117.15 7610.25 -1119.6 7610.25 -1122
M 7428.9 -1021.5
Q 7418.8 -1007.35 7415.1 -995.9 7424.6 -980.25 7438.45 -966.4 7482.95 -921.95 7545.8 -921.95 7608.65 -921.95 7653.1 -966.4 7666.95 -980.25 7676.55 -995.9 7672.75 -1007.35 7662.7 -1021.5 7643.75 -1048.15 7606.95 -1048.65 7604.95 -1048.7 7603.05 -1048.7 7578.25 -1030.15 7545.8 -1030.35 7513.35 -1030.15 7488.6 -1048.7 7486.65 -1048.7 7484.6 -1048.65 7447.9 -1048.15 7428.9 -1021.5 Z" />
        </g>
    </defs>

    <g transform="matrix( 1.1723480224609375, 0, 0, 1.1723480224609375, -8627.55,1456) ">
        <use xlink:href="#Layer0_0_FILL" />
    </g>
</svg>