<svg xmlns="http://www.w3.org/2000/svg" version="1.1" xmlns:xlink="http://www.w3.org/1999/xlink"
    preserveAspectRatio="none" x="0px" y="0px" width="42px" height="42px" viewBox="0 0 42 42">
    <defs>
        <g id="Symbol_1_0_Layer0_0_FILL">
            <path fill="#21799e" stroke="none"
                d="
M -17.85 -1.45
Q -19.55 -5.05 -23.4 -8.4
L -58.45 1.45 -57.65 4.4
Q -52.6 4.15 -49.85 6.9 -47.5 9.35 -44.15 17.35
L -64.2 48.4 -66.85 32.75
Q -69.85 14.1 -71.8 7.95 -75.05 -2.45 -81.35 -8.4
L -120.2 1.45 -119.35 4.2
Q -111.25 5.6 -106.2 15.1 -101.95 23.05 -91.6 53.8
L -77.35 96.3 -73.9 96.3 -54.8 76.15
Q -50.55 71.5 -34.8 53.05
L -24.25 96.35 -20.45 96.35 -9.95 86.3
Q 2.35 72.8 9.15 64.65 18.85 53.35 26.85 43 29.9 18.95 49.65 2.9 49.95 1.45 49.95 0 49.95 -2.4 48.75 -8.4
L 3.6 1.45 4.55 4.7
Q 12.55 4.1 12.55 9.7 12.55 12 8.55 18.75
L -7.85 45.75 -13.2 15.7
Q -15.35 3.8 -17.85 -1.45 Z" />
        </g>
    </defs>

    <g transform="matrix( 0.167572021484375, 0, 0, 0.167572021484375, 44.65,21.4) ">
        <g transform="matrix( 1.159210205078125, 0, 0, 1.159210205078125, -80.85,-50.65) ">
            <use xlink:href="#Symbol_1_0_Layer0_0_FILL" />
        </g>
    </g>
</svg>