
<svg xmlns="http://www.w3.org/2000/svg" version="1.1" xmlns:xlink="http://www.w3.org/1999/xlink" preserveAspectRatio="none" x="0px" y="0px" width="89px" height="42px" viewBox="0 0 89 42">
<defs>
<g id="Symbol_1_0_Layer0_0_FILL">
<path fill="#FE7B4D" stroke="none" d="
M 237.85 -8.95
Q 226.45 -8.95 216.2 -2.6 208.75 2 198.5 12.5
L 193.55 2.6
Q 187.6 -8.95 178.95 -8.95 170 -8.95 150.4 -2.4
L 149.45 2.85
Q 153.55 3.1 156 5.25 156 5.4 159.8 10.25 163.95 15.75 166.75 21.55
L 173.95 36.15 166.15 46.8
Q 157.9 58.15 152.3 63.9 150.65 65.6 149.2 66.9 148.55 67.45 147.9 68 147.325 68.45 146.75 68.9 133.2 79.4 119.1 76.55
L 119.1 80.7 131.85 89.5 132.4 89.8
Q 132.5 89.85 132.6 89.9 137.05 92.6 139.25 93.6 143.1 95.35 146.35 95.35 154.2 95.35 163.6 87.55 171.65 80.9 181.15 68.2
L 186.7 60.8 190.15 68.2
Q 200.7 91.35 210.95 91.35 215.2 91.35 246.8 80.45
L 245.3 76.1
Q 243 76.65 240.9 76.65 230 76.65 219.15 53.65
L 210.75 35.7
Q 228.6 15.95 240.75 15.95 249.15 15.95 249.75 23.85
L 253.95 23.85 259.75 -2.95
Q 246.45 -8.95 237.85 -8.95 Z"/>

<path fill="#FBCD55" stroke="none" d="
M 150.4 -2.4
L 150.55 -3.05 118 -0.25 115.4 6.9
Q 103.95 -7.35 84.1 -7.35 63.9 -7.35 49.65 2.9 29.9 18.95 26.85 43 26.35 47.1 26.35 51.8 26.35 70 36.4 81.25 46.9 93 65 93 70.25 93 82.95 91.15
L 95.55 64.65 91.75 62.25
Q 87.35 66.15 80.7 66.15 72.15 66.15 66.85 60.35 62.2 55.2 62.2 47.7 62.2 36.85 68.8 28.55 76 19.5 86.8 19.5 106.3 19.5 106.3 38.8 106.3 42.9 104.9 50.2
L 102.05 64.65
Q 100.15 74.8 100.15 77.1 100.15 80.6 103.35 92.95
L 128.75 87.6 131.85 89.5 119.1 80.7 119.1 76.55
Q 133.2 79.4 146.75 68.9 142.8 71.75 139.9 71.75 137.6 69.6 137.55 66.7 137.55 65.9 137.55 65.05 137.55 62.3 140 50
L 149.4 2.85 149.45 2.85 150.4 -2.4 Z"/>

<path fill="#21799E" stroke="none" d="
M -17.85 -1.45
Q -19.55 -5.05 -23.4 -8.4
L -58.45 1.45 -57.65 4.4
Q -52.6 4.15 -49.85 6.9 -47.5 9.35 -44.15 17.35
L -64.2 48.4 -66.85 32.75
Q -69.85 14.1 -71.8 7.95 -75.05 -2.45 -81.35 -8.4
L -120.2 1.45 -119.35 4.2
Q -111.25 5.6 -106.2 15.1 -101.95 23.05 -91.6 53.8
L -77.35 96.3 -73.9 96.3 -54.8 76.15
Q -50.55 71.5 -34.8 53.05
L -24.25 96.35 -20.45 96.35 -9.95 86.3
Q 2.35 72.8 9.15 64.65 18.85 53.35 26.85 43 29.9 18.95 49.65 2.9 49.95 1.45 49.95 0 49.95 -2.4 48.75 -8.4
L 3.6 1.45 4.55 4.7
Q 12.55 4.1 12.55 9.7 12.55 12 8.55 18.75
L -7.85 45.75 -13.2 15.7
Q -15.35 3.8 -17.85 -1.45 Z"/>
</g>
</defs>

<g transform="matrix( 0.167572021484375, 0, 0, 0.167572021484375, 44.65,21.4) ">
<g transform="matrix( 1.159210205078125, 0, 0, 1.159210205078125, -80.85,-50.65) ">
<use xlink:href="#Symbol_1_0_Layer0_0_FILL"/>
</g>
</g>
</svg>
